HIERARCHY
ROOT root
{
	OFFSET 0.000000 0.000000 0.000000
	CHANNELS 6 Xposition Yposition Zposition Zrotation Yrotation Xrotation
	JOINT lhip
	{
		OFFSET 0.058581 -0.082280 -0.017664
		CHANNELS 3 Zrotation Yrotation Xrotation
		JOINT lknee
		{
			OFFSET 0.043451 -0.386469 0.008037
			CHANNELS 3 Zrotation Yrotation Xrotation
			JOINT lankle
			{
				OFFSET -0.014790 -0.426874 -0.037428
				CHANNELS 3 Zrotation Yrotation Xrotation
				JOINT ltoe
				{
					OFFSET 0.041054 -0.060286 0.122042
					CHANNELS 3 Zrotation Yrotation Xrotation
					End Site
					{
						OFFSET 0.000000 0.000000 0.000000
					}
				}
			}
		}
	}
	JOINT rhip
	{
		OFFSET -0.060310 -0.090513 -0.013543
		CHANNELS 3 Zrotation Yrotation Xrotation
		JOINT rknee
		{
			OFFSET -0.043257 -0.383688 -0.004843
			CHANNELS 3 Zrotation Yrotation Xrotation
			JOINT rankle
			{
				OFFSET 0.019056 -0.420046 -0.034562
				CHANNELS 3 Zrotation Yrotation Xrotation
				JOINT rtoe
				{
					OFFSET -0.034840 -0.062106 0.130323
					CHANNELS 3 Zrotation Yrotation Xrotation
					End Site
					{
						OFFSET 0.000000 0.000000 0.000000
					}
				}
			}
		}
	}
	JOINT lowerback
	{
		OFFSET 0.004439 0.124404 -0.038385
		CHANNELS 3 Zrotation Yrotation Xrotation
		JOINT upperback
		{
			OFFSET 0.004488 0.137956 0.026820
			CHANNELS 3 Zrotation Yrotation Xrotation
			JOINT chest
			{
				OFFSET -0.002265 0.056032 0.002855
				CHANNELS 3 Zrotation Yrotation Xrotation
				JOINT lowerneck
				{
					OFFSET -0.013390 0.211636 -0.033468
					CHANNELS 3 Zrotation Yrotation Xrotation
					JOINT upperneck
					{
						OFFSET 0.010113 0.088937 0.050410
						CHANNELS 3 Zrotation Yrotation Xrotation
						End Site
						{
							OFFSET 0.000000 0.000000 0.000000
						}
					}
				}
				JOINT lclavicle
				{
					OFFSET 0.071702 0.114000 -0.018898
					CHANNELS 3 Zrotation Yrotation Xrotation
					JOINT lshoulder
					{
						OFFSET 0.122921 0.045205 -0.019046
						CHANNELS 3 Zrotation Yrotation Xrotation
						JOINT lelbow
						{
							OFFSET 0.255332 -0.015649 -0.022946
							CHANNELS 3 Zrotation Yrotation Xrotation
							JOINT lwrist
							{
								OFFSET 0.265709 0.012698 -0.007375
								CHANNELS 3 Zrotation Yrotation Xrotation
								End Site
								{
									OFFSET 0.000000 0.000000 0.000000
								}
							}
						}
					}
				}
				JOINT rclavicle
				{
					OFFSET -0.082954 0.112472 -0.023707
					CHANNELS 3 Zrotation Yrotation Xrotation
					JOINT rshoulder
					{
						OFFSET -0.113228 0.046853 -0.008472
						CHANNELS 3 Zrotation Yrotation Xrotation
						JOINT relbow
						{
							OFFSET -0.260127 -0.014369 -0.031269
							CHANNELS 3 Zrotation Yrotation Xrotation
							JOINT rwrist
							{
								OFFSET -0.269108 0.006794 -0.006027
								CHANNELS 3 Zrotation Yrotation Xrotation
								End Site
								{
									OFFSET 0.000000 0.000000 0.000000
								}
							}
						}
					}
				}
			}
		}
	}
}
MOTION
Frames: 6
Frame Time: 0.033333
-0.511822 0.245991 0.999663 91.267859 -0.730246 88.763462 2.337976 1.221671 5.457630 -3.341960 -7.163298 0.624717 -0.750617 7.923046 -8.428206 0.000000 -0.000000 0.000000 -4.615482 -3.486068 -1.436057 1.062573 -0.853866 10.314543 5.204913 -4.955005 -7.173909 0.000000 -0.000000 0.000000 -1.355560 0.172072 -2.745351 1.593112 -3.502148 5.392832 -1.027500 -1.023338 -2.125270 1.376432 2.851382 9.212505 1.711915 3.059425 17.242063 -24.745996 5.799766 -1.954567 -57.511024 -7.298121 17.761018 4.265053 -23.179632 9.135493 6.604458 -12.235026 4.667704 26.551237 -2.685818 -0.651813 56.765788 7.027934 16.520815 -4.430128 17.855415 4.242373 3.706399 7.059245 2.996179 
-0.512357 0.246118 0.999480 91.257793 -0.797616 88.722255 2.204537 0.973946 5.549871 -3.387595 -7.202394 0.496647 -0.418414 8.387173 -8.289212 0.000000 -0.000000 0.000000 -4.726439 -3.025464 -1.330388 1.279635 -0.718740 10.187064 5.290004 -5.491470 -7.072811 0.000000 -0.000000 0.000000 -1.393279 0.239007 -2.999945 1.466882 -3.565542 5.493380 -0.898263 -1.018414 -1.855255 1.120554 3.262939 9.491193 1.962019 3.014205 17.048009 -24.454370 5.483410 -1.725245 -57.838300 -7.947499 16.960567 2.633275 -20.937589 9.732311 -3.529895 -10.547961 2.680729 26.428097 -2.297551 -0.366784 56.883287 7.345018 16.548021 -5.129562 17.892959 3.468324 6.624004 7.098673 2.890453 
-0.513348 0.246143 0.999212 91.319831 -0.833930 88.619898 2.109581 0.849115 5.552493 -3.368301 -7.195676 0.636529 -0.331531 8.409477 -8.395201 0.000000 -0.000000 0.000000 -4.804644 -2.939946 -1.284213 1.364494 -0.834758 10.169229 5.347711 -5.591862 -6.949780 0.000000 -0.000000 0.000000 -1.386974 0.163684 -2.734728 1.419371 -3.514129 5.242099 -0.916079 -1.052093 -1.767596 1.159480 3.313566 9.214304 1.856386 3.021863 17.565139 -24.650946 5.323122 -1.644069 -57.716770 -8.262935 16.800702 2.479191 -20.542327 9.656990 -3.648585 -10.445773 2.655176 26.570083 -2.249926 -0.350959 56.866248 7.601674 16.570779 -5.259742 17.878769 3.366287 6.530147 7.138398 2.909690 
-0.514313 0.246327 0.999125 91.389401 -0.854806 88.524943 2.107203 0.862679 5.564649 -3.480609 -7.314648 0.789809 -0.267886 8.406681 -8.486311 0.000000 -0.000000 0.000000 -4.821267 -2.936082 -1.253944 1.365498 -0.795336 10.196517 5.346211 -5.600003 -6.984225 0.000000 -0.000000 0.000000 -1.364392 0.137984 -2.477465 1.386029 -3.523822 5.057666 -0.950920 -1.021849 -1.767650 1.112589 3.354647 9.186369 1.897280 3.229944 18.023151 -24.719975 5.205022 -1.609780 -57.723749 -8.312451 16.799544 2.340439 -20.374610 9.526390 -3.200884 -10.216584 2.501829 26.586192 -2.238544 -0.287846 56.899889 7.805621 16.597189 -5.269894 18.015670 3.257461 6.358822 7.089162 2.983323 
-0.514975 0.246384 0.999129 91.383615 -0.847389 88.502756 2.109912 0.806088 5.556993 -3.510581 -7.271892 0.805435 -0.215939 8.397808 -8.493999 0.000000 -0.000000 0.000000 -4.833173 -2.920221 -1.268999 1.374928 -0.838838 10.207183 5.340850 -5.519225 -6.983477 0.000000 -0.000000 0.000000 -1.340389 0.196772 -2.422268 1.382162 -3.483479 5.097468 -0.963015 -1.054198 -1.769801 1.120507 3.374942 9.314543 1.874754 3.150397 18.156362 -24.748942 5.121751 -1.534266 -57.744569 -8.322632 16.757664 2.390516 -20.535043 9.476493 -3.298649 -10.276969 2.624370 26.582611 -2.191032 -0.272037 56.932797 7.865406 16.565272 -5.395294 18.205394 3.323223 6.603012 7.093926 3.247036 
-0.515491 0.246431 0.999041 91.427973 -0.817382 88.461885 2.138533 0.836095 5.544379 -3.513929 -7.315264 0.866664 -0.183311 8.380538 -8.497016 0.000000 -0.000000 0.000000 -4.824657 -3.009740 -1.227495 1.399166 -0.801233 10.151844 5.296661 -5.461515 -6.874420 0.000000 -0.000000 0.000000 -1.292946 0.220602 -2.367121 1.371061 -3.449977 5.096609 -0.968904 -0.999003 -1.717603 1.108219 3.323911 9.470826 1.799202 3.205527 18.373196 -24.768412 5.140090 -1.564940 -57.814335 -8.365713 16.807220 2.424892 -20.534712 9.493993 -3.024247 -10.406759 2.562220 26.482746 -2.266881 -0.221776 57.025435 7.948128 16.595637 -5.357762 18.417021 3.316653 6.373680 7.133441 3.009267 
